<mxfile host="app.diagrams.net" modified="2023-07-08T11:50:11.924Z" agent="Mozilla/5.0 (Macintosh; Intel Mac OS X 10_15_7) AppleWebKit/537.36 (KHTML, like Gecko) Chrome/114.0.0.0 Safari/537.36" version="21.3.8" etag="rK26mYkDEtitXjN5li4s" type="github">
  <diagram name="Page-1" id="2Yeo7vBrqU9F4xW_cjjD">
    <mxGraphModel>
      <root>
        <mxCell id="0" />
        <mxCell id="1" parent="0" />
      </root>
    </mxGraphModel>
  </diagram>
</mxfile>
